<svg viewBox="0 0 40 40" fill="white" xmlns="http://www.w3.org/2000/svg">
<g clip-path="url(#clip0)">
<path d="M19.5971 0.40799C8.77571 0.40799 0 9.218 0 20.086C0 28.7784 5.61528 36.1527 13.4061 38.757C14.3861 38.9383 14.7438 38.3307 14.7438 37.8089C14.7438 37.341 14.7266 36.1037 14.7168 34.4623C9.2657 35.6505 8.11423 31.8237 8.11423 31.8237C7.2249 29.5501 5.93867 28.945 5.93867 28.945C4.15756 27.7249 6.07097 27.7494 6.07097 27.7494C8.03828 27.8891 9.07216 29.778 9.07216 29.778C10.8214 32.7841 13.6609 31.9168 14.7781 31.4121C14.9545 30.1406 15.4616 29.2733 16.0227 28.7808C11.6716 28.2835 7.09505 26.5955 7.09505 19.057C7.09505 16.9084 7.85943 15.1518 9.11381 13.7749C8.91046 13.2776 8.23918 11.276 9.3049 8.56877C9.3049 8.56877 10.9513 8.03958 14.6948 10.5851C16.2579 10.149 17.9336 9.93094 19.602 9.92359C21.2656 9.93339 22.9438 10.149 24.5093 10.5875C28.2504 8.04203 29.8943 8.57122 29.8943 8.57122C30.9624 11.2809 30.2912 13.28 30.0903 13.7774C31.3471 15.1542 32.1041 16.9108 32.1041 19.0594C32.1041 26.6175 27.5227 28.281 23.1569 28.7686C23.86 29.3762 24.4872 30.5767 24.4872 32.4117C24.4872 35.0429 24.4627 37.1646 24.4627 37.8089C24.4627 38.3356 24.8155 38.9481 25.8102 38.7546C33.5888 36.1478 39.1992 28.7759 39.1992 20.086C39.1992 9.218 30.4235 0.40799 19.5971 0.40799Z"/>
</g>
<defs>
<clipPath id="clip0">
<rect width="39.1992" height="39.1992"/>
</clipPath>
</defs>
</svg>
