<svg viewBox="0 0 40 40" fill="white" xmlns="http://www.w3.org/2000/svg">
<g clip-path="url(#clip0)">
<path d="M23.8456 19.5996C23.8456 21.5022 22.303 23.0448 20.4003 23.0448C18.4977 23.0448 16.9551 21.5022 16.9551 19.5996C16.9551 17.6969 18.4977 16.1543 20.4003 16.1543C22.303 16.1543 23.8456 17.6969 23.8456 19.5996Z"/>
<path d="M26.2189 9.1873H14.5817C12.0486 9.1873 9.98804 11.2479 9.98804 13.781V25.4182C9.98804 27.9513 12.0486 30.0119 14.5817 30.0119H26.2189C28.752 30.0119 30.8126 27.9513 30.8126 25.4182V13.781C30.8126 11.2479 28.752 9.1873 26.2189 9.1873ZM20.4003 25.3416C17.2341 25.3416 14.6583 22.7658 14.6583 19.5996C14.6583 16.4334 17.2341 13.8575 20.4003 13.8575C23.5665 13.8575 26.1424 16.4334 26.1424 19.5996C26.1424 22.7658 23.5665 25.3416 20.4003 25.3416ZM26.9846 14.1638C26.3502 14.1638 25.8361 13.6497 25.8361 13.0153C25.8361 12.381 26.3502 11.8669 26.9846 11.8669C27.6189 11.8669 28.133 12.381 28.133 13.0153C28.133 13.6497 27.6189 14.1638 26.9846 14.1638Z"/>
<path d="M29.6642 0H11.1365C5.4375 0 0.800781 4.63672 0.800781 10.3357V28.8635C0.800781 34.5625 5.4375 39.1992 11.1365 39.1992H29.6642C35.3632 39.1992 40 34.5625 40 28.8635V10.3357C40 4.63672 35.3632 0 29.6642 0ZM33.1095 25.4182C33.1095 29.2175 30.0183 32.3087 26.219 32.3087H14.5817C10.7824 32.3087 7.69126 29.2175 7.69126 25.4182V13.781C7.69126 9.98162 10.7824 6.89048 14.5817 6.89048H26.219C30.0183 6.89048 33.1095 9.98162 33.1095 13.781V25.4182Z"/>
</g>
<defs>
<clipPath id="clip0">
<rect width="39.1992" height="39.1992" transform="translate(0.800781)"/>
</clipPath>
</defs>
</svg>
