<svg viewBox="0 0 41 40" fill="white" xmlns="http://www.w3.org/2000/svg">
<g clip-path="url(#clip0)">
<path d="M37.2725 0H3.72746C2.16604 0 0.900391 1.26565 0.900391 2.82707V36.3721C0.900391 37.9335 2.16604 39.1992 3.72746 39.1992H37.2725C38.8339 39.1992 40.0996 37.9335 40.0996 36.3721V2.82707C40.0996 1.26565 38.8339 0 37.2725 0V0ZM14.8046 29.6291H10.0312V15.2682H14.8046V29.6291ZM12.418 13.3072H12.3869C10.7851 13.3072 9.74915 12.2046 9.74915 10.8265C9.74915 9.41729 10.8168 8.34514 12.4497 8.34514C14.0826 8.34514 15.0875 9.41729 15.1186 10.8265C15.1186 12.2046 14.0826 13.3072 12.418 13.3072ZM32.0164 29.6291H27.2436V21.9464C27.2436 20.0156 26.5525 18.6988 24.8254 18.6988C23.5068 18.6988 22.7214 19.587 22.3763 20.4444C22.2501 20.7513 22.2193 21.1801 22.2193 21.6093V29.6291H17.4462C17.4462 29.6291 17.5087 16.6155 17.4462 15.2682H22.2193V17.3016C22.8536 16.323 23.9886 14.9312 26.5211 14.9312C29.6616 14.9312 32.0164 16.9837 32.0164 21.3946V29.6291Z"/>
</g>
<defs>
<clipPath id="clip0">
<rect width="39.1992" height="39.1992" transform="translate(0.900391)"/>
</clipPath>
</defs>
</svg>
